<svg width="19" height="23" viewBox="0 0 19 23" fill="none" xmlns="http://www.w3.org/2000/svg">
<path d="M18.1885 17.7393C17.8585 18.5018 17.4678 19.2036 17.0152 19.8489C16.3982 20.7285 15.8931 21.3374 15.5038 21.6755C14.9003 22.2305 14.2537 22.5147 13.5613 22.5309C13.0642 22.5309 12.4647 22.3895 11.7669 22.1025C11.0669 21.817 10.4235 21.6755 9.83522 21.6755C9.21826 21.6755 8.55657 21.817 7.8488 22.1025C7.13996 22.3895 6.56893 22.539 6.13234 22.5538C5.46836 22.5821 4.80654 22.2898 4.14592 21.6755C3.72428 21.3078 3.1969 20.6773 2.56511 19.7842C1.88726 18.8305 1.32997 17.7245 0.893375 16.4636C0.4258 15.1017 0.191406 13.7829 0.191406 12.5061C0.191406 11.0436 0.507434 9.78219 1.14043 8.72513C1.63791 7.87606 2.29974 7.20629 3.12806 6.7146C3.95639 6.22292 4.85139 5.97236 5.81524 5.95633C6.34262 5.95633 7.03422 6.11946 7.89366 6.44007C8.75068 6.76175 9.30097 6.92488 9.54223 6.92488C9.72261 6.92488 10.3339 6.73414 11.3702 6.35385C12.3502 6.00118 13.1774 5.85516 13.8549 5.91268C15.691 6.06086 17.0704 6.78465 17.9878 8.08863C16.3457 9.08359 15.5334 10.4772 15.5496 12.2649C15.5644 13.6574 16.0696 14.8161 17.0624 15.7362C17.5123 16.1632 18.0148 16.4933 18.5738 16.7276C18.4526 17.0792 18.3246 17.416 18.1885 17.7393V17.7393ZM13.9775 1.16877C13.9775 2.2602 13.5788 3.27926 12.784 4.22249C11.8249 5.3438 10.6648 5.99175 9.40671 5.88951C9.39068 5.75857 9.38139 5.62077 9.38139 5.47595C9.38139 4.42819 9.83751 3.30687 10.6475 2.39004C11.0519 1.92584 11.5662 1.53985 12.1899 1.23195C12.8123 0.928639 13.401 0.760902 13.9546 0.732178C13.9708 0.878084 13.9775 1.024 13.9775 1.16876V1.16877Z" fill="black"/>
</svg>
