<svg width="19" height="23" viewBox="0 0 19 23" fill="none" xmlns="http://www.w3.org/2000/svg">
<path d="M18.6043 17.53C18.2743 18.2924 17.8836 18.9942 17.431 19.6395C16.814 20.5192 16.3089 21.128 15.9195 21.4662C15.3161 22.0212 14.6694 22.3054 13.977 22.3216C13.48 22.3216 12.8805 22.1801 12.1827 21.8932C11.4826 21.6076 10.8393 21.4662 10.251 21.4662C9.63403 21.4662 8.97234 21.6076 8.26458 21.8932C7.55574 22.1801 6.9847 22.3296 6.54811 22.3445C5.88413 22.3727 5.22231 22.0804 4.56169 21.4662C4.14006 21.0984 3.61267 20.468 2.98088 19.5748C2.30303 18.6211 1.74574 17.5151 1.30915 16.2543C0.841571 14.8924 0.607178 13.5736 0.607178 12.2968C0.607178 10.8343 0.923205 9.57284 1.5562 8.51578C2.05368 7.66671 2.71551 6.99694 3.54383 6.50525C4.37216 6.01356 5.26717 5.76301 6.23101 5.74698C6.75839 5.74698 7.44999 5.91011 8.30943 6.23072C9.16645 6.5524 9.71674 6.71553 9.958 6.71553C10.1384 6.71553 10.7497 6.52478 11.786 6.1445C12.766 5.79183 13.5931 5.64581 14.2707 5.70333C16.1068 5.85151 17.4862 6.5753 18.4036 7.87928C16.7615 8.87424 15.9492 10.2678 15.9653 12.0555C15.9802 13.448 16.4853 14.6068 17.4781 15.5268C17.9281 15.9539 18.4305 16.2839 18.9896 16.5183C18.8683 16.8699 18.7404 17.2067 18.6043 17.53V17.53ZM14.3933 0.959422C14.3933 2.05085 13.9946 3.06991 13.1998 4.01314C12.2406 5.13445 11.0805 5.7824 9.82248 5.68016C9.80645 5.54922 9.79716 5.41142 9.79716 5.2666C9.79716 4.21884 10.2533 3.09752 11.0633 2.18069C11.4677 1.71649 11.982 1.3305 12.6057 1.0226C13.2281 0.719289 13.8167 0.551551 14.3704 0.522827C14.3866 0.668734 14.3933 0.814649 14.3933 0.959407V0.959422Z" fill="white"/>
</svg>
