<svg width="19" height="9" viewBox="0 0 19 9" fill="none" xmlns="http://www.w3.org/2000/svg">
<path d="M18.2121 3.19181L16.2152 0.439251C16.0415 0.204276 15.7232 0.170709 15.4916 0.372116C15.2891 0.573523 15.2601 0.942769 15.4338 1.21131L17.3149 3.79603H1.28168C0.992269 3.79603 0.760742 4.06458 0.760742 4.40025C0.760742 4.73593 0.992269 5.00448 1.28168 5.00448H17.3149L15.4338 7.5892C15.2601 7.82417 15.2891 8.19342 15.4916 8.42839C15.5785 8.5291 15.6942 8.56267 15.81 8.56267C15.9547 8.56267 16.0994 8.49553 16.1862 8.36126L18.1831 5.6087C18.7041 4.8702 18.7041 3.86317 18.2121 3.19181Z" fill="black"/>
</svg>
