<svg width="28" height="29" viewBox="0 0 28 29" fill="none" xmlns="http://www.w3.org/2000/svg">
<circle cx="13.9176" cy="14.4527" r="13.8277" fill="#4285F4"/>
<path d="M14.3497 7.53885C10.3095 7.53885 7.00378 10.8504 7.00378 14.9291C7.00378 18.6168 9.69241 21.6776 13.2038 22.2308V17.068H11.3379V14.9291H13.2038V13.2991C13.2038 11.4479 14.2983 10.43 15.9806 10.43C16.7813 10.43 17.6187 10.5702 17.6187 10.5702V12.3919H16.6931C15.7822 12.3919 15.4957 12.9598 15.4957 13.5425V14.9291H17.5379L17.2073 17.068H15.4957V22.2308C17.2268 21.9563 18.803 21.0695 19.94 19.7306C21.0769 18.3916 21.6996 16.6886 21.6957 14.9291C21.6957 10.8504 18.39 7.53885 14.3497 7.53885Z" fill="white"/>
</svg>
