<svg width="23" height="23" viewBox="0 0 23 23" fill="none" xmlns="http://www.w3.org/2000/svg">
<path fill-rule="evenodd" clip-rule="evenodd" d="M22.2993 11.5158C22.2993 10.742 22.2298 9.99804 22.1009 9.28381H11.824V13.5047H17.6965C17.4435 14.8686 16.6747 16.0243 15.5191 16.798V19.5359H19.0456C21.1089 17.6363 22.2993 14.8389 22.2993 11.5158Z" fill="#4285F4"/>
<path fill-rule="evenodd" clip-rule="evenodd" d="M11.8239 22.1795C14.7701 22.1795 17.2401 21.2024 19.0455 19.5358L15.519 16.798C14.5419 17.4527 13.292 17.8396 11.8239 17.8396C8.98188 17.8396 6.57633 15.9201 5.71827 13.3409H2.07275V16.1681C3.86823 19.7342 7.55839 22.1795 11.8239 22.1795Z" fill="#34A853"/>
<path fill-rule="evenodd" clip-rule="evenodd" d="M5.71833 13.3412C5.5001 12.6865 5.3761 11.9871 5.3761 11.2679C5.3761 10.5487 5.5001 9.8494 5.71833 9.19469V6.36755H2.07282C1.33379 7.84064 0.912201 9.50716 0.912201 11.2679C0.912201 13.0287 1.33379 14.6952 2.07282 16.1683L5.71833 13.3412Z" fill="#FBBC05"/>
<path fill-rule="evenodd" clip-rule="evenodd" d="M11.8239 4.69598C13.4259 4.69598 14.8643 5.24653 15.9952 6.32779L19.1249 3.1981C17.2351 1.43734 14.7651 0.356079 11.8239 0.356079C7.55839 0.356079 3.86823 2.80131 2.07275 6.36747L5.71827 9.1946C6.57633 6.61546 8.98188 4.69598 11.8239 4.69598Z" fill="#EA4335"/>
</svg>
