<svg width="28" height="29" viewBox="0 0 28 29" fill="none" xmlns="http://www.w3.org/2000/svg">
<circle cx="14.0824" cy="14.4527" r="13.8277" fill="#BD2FAF"/>
<path d="M10.4526 5.81039H17.7122C20.4777 5.81039 22.7247 8.0574 22.7247 10.8229V18.0825C22.7247 19.4119 22.1966 20.6869 21.2566 21.6269C20.3165 22.5669 19.0416 23.095 17.7122 23.095H10.4526C7.68707 23.095 5.44006 20.848 5.44006 18.0825V10.8229C5.44006 9.49353 5.96817 8.21857 6.9082 7.27853C7.84824 6.3385 9.1232 5.81039 10.4526 5.81039ZM10.2798 7.53886C9.45461 7.53886 8.66326 7.86665 8.07979 8.45012C7.49632 9.03359 7.16853 9.82494 7.16853 10.6501V18.2553C7.16853 19.9752 8.55994 21.3666 10.2798 21.3666H17.885C18.7102 21.3666 19.5015 21.0388 20.085 20.4553C20.6684 19.8718 20.9962 19.0805 20.9962 18.2553V10.6501C20.9962 8.93027 19.6048 7.53886 17.885 7.53886H10.2798ZM18.6196 8.83521C18.9061 8.83521 19.1809 8.94902 19.3835 9.15162C19.5861 9.35421 19.6999 9.62899 19.6999 9.9155C19.6999 10.202 19.5861 10.4768 19.3835 10.6794C19.1809 10.882 18.9061 10.9958 18.6196 10.9958C18.3331 10.9958 18.0583 10.882 17.8557 10.6794C17.6531 10.4768 17.5393 10.202 17.5393 9.9155C17.5393 9.62899 17.6531 9.35421 17.8557 9.15162C18.0583 8.94902 18.3331 8.83521 18.6196 8.83521ZM14.0824 10.1316C15.2284 10.1316 16.3275 10.5868 17.1379 11.3972C17.9483 12.2076 18.4035 13.3067 18.4035 14.4527C18.4035 15.5988 17.9483 16.6979 17.1379 17.5082C16.3275 18.3186 15.2284 18.7739 14.0824 18.7739C12.9363 18.7739 11.8372 18.3186 11.0269 17.5082C10.2165 16.6979 9.76122 15.5988 9.76122 14.4527C9.76122 13.3067 10.2165 12.2076 11.0269 11.3972C11.8372 10.5868 12.9363 10.1316 14.0824 10.1316ZM14.0824 11.86C13.3948 11.86 12.7353 12.1332 12.2491 12.6194C11.7628 13.1056 11.4897 13.7651 11.4897 14.4527C11.4897 15.1403 11.7628 15.7998 12.2491 16.286C12.7353 16.7723 13.3948 17.0454 14.0824 17.0454C14.77 17.0454 15.4295 16.7723 15.9157 16.286C16.4019 15.7998 16.6751 15.1403 16.6751 14.4527C16.6751 13.7651 16.4019 13.1056 15.9157 12.6194C15.4295 12.1332 14.77 11.86 14.0824 11.86Z" fill="white"/>
</svg>
