<svg width="29" height="29" viewBox="0 0 29 29" fill="none" xmlns="http://www.w3.org/2000/svg">
<path d="M0.663574 14.8197C0.663574 22.4578 6.85548 28.6497 14.4936 28.6497C22.1317 28.6497 28.3236 22.4578 28.3236 14.8197C28.3236 7.18165 22.1317 0.989746 14.4936 0.989746C6.85548 0.989746 0.663574 7.18165 0.663574 14.8197Z" fill="#2867B2"/>
<path d="M10.6904 21.7348H7.75149V12.486H10.6904V21.7348ZM9.22093 11.1894C8.27011 11.1894 7.57861 10.4979 7.57861 9.5471C7.57861 8.59628 8.35655 7.90479 9.22093 7.90479C10.1717 7.90479 10.8632 8.59628 10.8632 9.5471C10.8632 10.4979 10.1717 11.1894 9.22093 11.1894ZM21.4086 21.7348H18.4697V16.7214C18.4697 15.252 17.8647 14.8198 17.0003 14.8198C16.1359 14.8198 15.2715 15.5113 15.2715 16.8078V21.7348H12.3327V12.486H15.0987V13.7825C15.358 13.1775 16.3952 12.2267 17.8647 12.2267C19.507 12.2267 21.2357 13.1775 21.2357 16.0299V21.7348H21.4086Z" fill="white"/>
</svg>
