<svg width="29" height="29" viewBox="0 0 29 29" fill="none" xmlns="http://www.w3.org/2000/svg">
<circle cx="14.5" cy="14.4527" r="13.8277" fill="#42BFF4"/>
<path d="M22.2781 9.82653C21.7055 10.0756 21.0883 10.2393 20.4488 10.3176C21.1032 9.94041 21.6089 9.34256 21.8468 8.62372C21.2296 8.97958 20.5455 9.22869 19.8242 9.37103C19.2368 8.75895 18.4114 8.40309 17.4744 8.40309C15.727 8.40309 14.2992 9.76959 14.2992 11.4564C14.2992 11.6984 14.329 11.9332 14.381 12.1539C11.7338 12.0257 9.37659 10.8087 7.80758 8.96535C7.53245 9.41373 7.37629 9.94041 7.37629 10.4955C7.37629 11.556 7.934 12.4955 8.79658 13.0293C8.26862 13.0293 7.77784 12.8869 7.34655 12.6734V12.6948C7.34655 14.1751 8.44708 15.4135 9.90455 15.6911C9.43662 15.8137 8.94537 15.8307 8.46939 15.7409C8.67136 16.3477 9.0669 16.8785 9.60042 17.259C10.1339 17.6394 10.7786 17.8502 11.4438 17.8619C10.3162 18.7162 8.91852 19.1781 7.4804 19.1714C7.22757 19.1714 6.97475 19.1572 6.72192 19.1287C8.13477 19.997 9.81531 20.5023 11.6148 20.5023C17.4744 20.5023 20.6942 15.8477 20.6942 11.8122C20.6942 11.677 20.6942 11.5489 20.6868 11.4137C21.3114 10.9866 21.8468 10.4457 22.2781 9.82653Z" fill="white"/>
</svg>
